<svg xmlns="http://www.w3.org/2000/svg" viewBox="0 0 240 240"><defs><style>.cls-1{fill:#a67c52;}.cls-2{fill:#fff;}</style></defs><g id="Layer_2" data-name="Layer 2"><g id="product_icon" data-name="product icon"><g id="desktop_icon"><rect id="background" class="cls-1" width="240" height="240" rx="50.15"/><g id="app_icon" data-name="app icon"><path class="cls-2" d="M67.71,32H172.29a12,12,0,0,1,12,12V57a0,0,0,0,1,0,0H55.71a0,0,0,0,1,0,0V44A12,12,0,0,1,67.71,32Z"/><path class="cls-2" d="M55.71,64H96.29a0,0,0,0,1,0,0V208a0,0,0,0,1,0,0H67.62a11.91,11.91,0,0,1-11.91-11.91V64A0,0,0,0,1,55.71,64Z"/><rect class="cls-2" x="104.29" y="64" width="80" height="60"/><path class="cls-2" d="M104.29,132h80a0,0,0,0,1,0,0v63.69A12.31,12.31,0,0,1,172,208H104.29a0,0,0,0,1,0,0V132A0,0,0,0,1,104.29,132Z"/></g></g></g></g></svg>